<svg xmlns="http://www.w3.org/2000/svg" xmlns:xlink="https://www.w3.org/1999/xlink" width="115.686" height="120" viewBox="0 0 115.686 120">
  <defs>
    <linearGradient id="linear-gradient" x1="1" y1="0.104" x2="-0.051" y2="1.088" gradientUnits="objectBoundingBox">
      <stop offset="0" stop-color="#183c5f"/>
      <stop offset="1" stop-color="#446e96"/>
    </linearGradient>
    <linearGradient id="linear-gradient-2" x1="0.359" y1="3.468" x2="0.848" y2="2.799" gradientUnits="objectBoundingBox">
      <stop offset="0" stop-color="#092745"/>
      <stop offset="1" stop-color="#092745" stop-opacity="0"/>
    </linearGradient>
    <linearGradient id="linear-gradient-3" x1="1.91" y1="5.215" x2="0.156" y2="6.586" gradientUnits="objectBoundingBox">
      <stop offset="0.011" stop-color="#c2d1ff"/>
      <stop offset="1" stop-color="#fff"/>
    </linearGradient>
    <linearGradient id="linear-gradient-4" x1="1.323" y1="5.674" x2="-0.431" y2="7.045" xlink:href="#linear-gradient-3"/>
    <linearGradient id="linear-gradient-5" x1="0.785" y1="26.397" x2="-0.016" y2="35.876" xlink:href="#linear-gradient-3"/>
    <linearGradient id="linear-gradient-6" x1="0.235" y1="12.059" x2="0.792" y2="11.585" gradientUnits="objectBoundingBox">
      <stop offset="0" stop-color="#0c95d3"/>
      <stop offset="1" stop-color="#0c95d3" stop-opacity="0"/>
    </linearGradient>
    <linearGradient id="linear-gradient-7" x1="0.835" y1="20.107" x2="0.157" y2="20.784" gradientUnits="objectBoundingBox">
      <stop offset="0.011" stop-color="#8fc9e3"/>
      <stop offset="1" stop-color="#fff"/>
    </linearGradient>
    <linearGradient id="linear-gradient-8" x1="0.234" y1="11.598" x2="0.79" y2="11.122" xlink:href="#linear-gradient-6"/>
    <linearGradient id="linear-gradient-9" x1="0.835" y1="19.322" x2="0.155" y2="20.001" xlink:href="#linear-gradient-7"/>
  </defs>
  <g id="Delivery_Today_" data-name="Delivery Today " transform="translate(284.224 78.646)">
    <path id="Path_432" data-name="Path 432" d="M-172.284-14.565A56.365,56.365,0,0,1-176.8,7.494a56.227,56.227,0,0,1-19.06,23.6,55.5,55.5,0,0,1-32.393,10.257,55.985,55.985,0,0,1-55.97-55.919,56.018,56.018,0,0,1,3.085-18.309,51.6,51.6,0,0,1,5.509-11.36,56.021,56.021,0,0,1,47.156-26.36h2.644a57.375,57.375,0,0,1,11.569,1.654A53.6,53.6,0,0,1-198.4-62.1,55.724,55.724,0,0,1-176.25-35.741l1.322,3.75A57.049,57.049,0,0,1-172.284-14.565Z" fill="#c5d3e8"/>
    <path id="Path_433" data-name="Path 433" d="M-176.36-35.631a1.813,1.813,0,0,0-.992-.551c-.881-.331-2.975.11-3.195-2.317,0-.11-.11-.22-.22-.441-.441.552-.882.993-1.543,1.765-.551-1.1-.991-2.1-1.432-3.2-.331.331-.551.662-.882.772-.44.221-.991.552-1.321.331-.882-.441-.882-2.426-.992-2.978-2.093.772-3.2-.992-4.958-1.323-.22,1.323-.441,2.757-.661,4.191-5.729,1.434-5.4.882-8.7-4.853a6.191,6.191,0,0,1,3.966-1.544c2.645.11,5.179-3.309,4.738-4.081-.771-1.1-.441-2.316-.22-3.64a2.79,2.79,0,0,0-1.323-.22,1.832,1.832,0,0,1-2.093-1.324c-.661-1.764-3.085.221-3.636-3.088-.661-3.971.221-3.86,1.433-3.971a53.622,53.622,0,0,0-15.866-6.838,7.471,7.471,0,0,0-.771,1.213c-1.433,2.978-2.644,1.1-4.3,2.978-1.432,1.655-2.865,3.309-4.3,5.074-2.093-1.1-2.754-3.088-3.3-5.184-.661-2.426,1.212-4.081,1.1-5.735h-2.644c1.653,2.426,1.763,1.764-2.534,5.184-2.865-4.192-5.619.772-7.051-2.206-1.653,1.1-3.195,2.095-4.738,3.309-.661.441-.661,2.867-.11,3.419a1.31,1.31,0,0,0,1.212.441,5.356,5.356,0,0,0,3.636-3.088c1.432.992,2.534.22,3.525-.772,1.433-1.434,1.873.11,3.2,1.1,1.432,1.1.771,1.545-.331,3.64v.441c.441-.11.881-.22,1.542-.331-.55,1.986-.991,6.177-4.076,4.192-1.322-.883-1.873-.883-2.644.441a2.028,2.028,0,0,1-1.984.882c-6.5.331-5.178.993-7.932,1.875-2.094.662.33-1.434-7.933,3.309a2.22,2.22,0,0,0-.771.993c-.551,2.867-.661,5.294-1.212,5.4-2.314.221-.441-5.625-5.619-5.735-2.975-.111-5.289,1.323-7.272,3.419-1.543,1.654-2.2,6.618,1.653,5.845.44-.11.881-.33,1.212-.22a1.211,1.211,0,0,1,.661,1.985c-.882.993-3.2,1.875-1.543,2.978.882.552.441.882.441,4.081,0,1.765,1.322,2.757,3.526,3.64,3.2,1.1,2.864-3.861,5.949-1.986a25.869,25.869,0,0,0,4.3,2.1,9.353,9.353,0,0,1,3.526,2.316c1.432,1.544,6.39,1.875,8.814,8.272.33.993,1.322,1.765,1.763,2.758a3.412,3.412,0,0,0,2.754,2.1c3.306.772,6.28,3.088,6.28,4.743A6.219,6.219,0,0,1-232.771-1C-234.2.215-234.534,3.192-236.3,5.95c-2.975,4.522-5.73,2.867-7.162,4.963-1.212,1.765-2.424,3.419-3.526,5.184-1.212,2.095-5.619,3.97-7.161,6.176-1.212,1.765-2.644,3.53-1.983,6.066a24.24,24.24,0,0,1,.881,5.184c-1.983-.551-3.195-1.875-4.517-3.2-1.983-2.1-2.534-4.633-2.755-7.39-.11-.772-.551-1.544-.661-2.316,0-1.544.11-3.2.221-4.743a6.055,6.055,0,0,0-.111-3.419,4.489,4.489,0,0,1,0-2.095c.882-6.177,1.1-6.618.882-6.949A4.06,4.06,0,0,1-263.18-1c-1.873-2.1-3.525-3.97-5.178-5.845a4.718,4.718,0,0,1-1.1-3.2,20.264,20.264,0,0,0-.441-2.537c-.33-3.529,1.543-5.073,3.416-7.83,1.983-2.868.771-5.074.11-5.515-3.415-1.875-1.983-4.412-3.636-5.625s-1.1-2.316-.991-3.309c-3.306-2.426-5.4-2.978-4.407-7.39,0-.11.11-.441.11-.551a1.9,1.9,0,0,0-.221-1.324v-.11a.108.108,0,0,0-.11-.11,55.648,55.648,0,0,0-8.483,29.779,55.886,55.886,0,0,0,52.334,55.809c1.212.11,2.424.11,3.636.11A56.554,56.554,0,0,0-195.751,31.1v-.111c0-.11.11-.22.11-.441v-.22a43.531,43.531,0,0,1,2.314-5.184c3.195-5.625-2.534-6.066,2.754-12.463.661-.883,3.856-3.2,1.983-7.169a6.7,6.7,0,0,1-.661-4.192c.441-2.316,1.983-4.08,1.322-6.727-.22-1.1-.44-1.214-1.432-.773-.661.331-.991.111-1.542-.22a5.4,5.4,0,0,0-3.416-.772c-7.933,1.434-11.9-4.632-13.331-5.625-2.755-1.875-1.653-4.191.22-12.9a1.908,1.908,0,0,0,.11-1.1c-.881-2.427.661-3.64,2.2-4.964.11-.11.22-.22.33-.22,1.983-.552,3.195-1.986,4.407-3.419.111-.111.221-.331.441-.331,3.305-1.214,6.611-2.206,10.026-.883,1.983.772,3.085-1.323,8.043,2.868,2.754,2.537,2.975,1.324,6.831,1.875Zm-84.616-2.757c.881-1.765,2.093-1.875,3.525-.993.772.441,1.212.441,4.518,1.434,0,.22-.11.331-.11.551C-255.8-37.065-258.332-37.837-260.976-38.388Zm11.018,4.742c-1.873-.22-3.416-.331-4.958-.551,1.1-1.434,3.856-1.765,4.958-.662C-249.738-34.638-249.958-33.977-249.958-33.646Zm31.51-29.007c2.314-.993,3.195-1.434,4.187-.331.22.221,0,.772-.11,1.213a4.8,4.8,0,0,1-1.322,1.875,18.484,18.484,0,0,1-2.975-1.213C-219.329-61.55-219.219-62.322-218.448-62.653Zm15.535,10.478a16.232,16.232,0,0,1-.881-1.434c1.1-.882,1.763-1.1,1.432-2.1a1.174,1.174,0,0,1,.11-.882c.221-.11.772-.22.992,0,1.322,1.434,3.415,2.206,4.077,4.191,0,.111.11.111.11.221.11.662.44,1.654.22,1.765a4.563,4.563,0,0,1-2.534.992c-.881,0-1.322-.882-1.322-1.764a12.219,12.219,0,0,0-.331-1.765C-201.921-52.616-202.362-52.4-202.913-52.175Z" fill="#ebf0fd"/>
    <path id="Path_434" data-name="Path 434" d="M-192.886,17.31a8.5,8.5,0,0,1,2.313-4.632c.661-.883,3.856-3.2,1.983-7.169a6.7,6.7,0,0,1-.661-4.191h-39.663a2.729,2.729,0,0,0-2.755,2.757V20.95c-26.993-5.515-47.486-27.353-49.249-54.044A56.014,56.014,0,0,0-284-14.785a55.961,55.961,0,0,0,52.334,55.808h1.212c.771,0,1.543.11,2.424.11a56.554,56.554,0,0,0,32.392-10.257,56.215,56.215,0,0,0,19.061-23.6A60.776,60.776,0,0,1-192.886,17.31Z" fill="#4e5f78" opacity="0.08" style="isolation: isolate"/>
    <path id="Path_435" data-name="Path 435" d="M-169.97.545V37.714a2.847,2.847,0,0,1-2.865,2.868h-50.24a2.846,2.846,0,0,1-2.865-2.868V.545a2.756,2.756,0,0,1,2.865-2.757h50.24A2.824,2.824,0,0,1-169.97.545Z" fill="url(#linear-gradient)"/>
    <path id="Path_436" data-name="Path 436" d="M-169.97,30.545V37.6a2.964,2.964,0,0,1-2.975,2.978h-15.094l-5.4-5.4,5.95-.773-3.636-3.529.441-2.206-2.644-2.757,3.415-1.324.551-1.875c.11,0,4.077,2.868,4.077,2.868l5.067,5.073.772-6.066,3.085-.882Z" fill="url(#linear-gradient-2)"/>
    <path id="Path_437" data-name="Path 437" d="M-192.336-2.212V10.362l-5.068,2.647-3.636-2.868-2.754,2.316V-2.212Z" fill="#fff" opacity="0.3" style="isolation: isolate"/>
    <path id="Path_438" data-name="Path 438" d="M-192.776,26.244h1.652v4.411a.352.352,0,0,0,.331.331h2.864a.352.352,0,0,0,.331-.331V26.244h1.542c.221,0,.331-.111.551-.221a.864.864,0,0,0,.11-1.213l-3.3-4.191-.11-.111a.872.872,0,0,0-1.212.111l-3.3,4.191a.844.844,0,0,0-.221.551A.853.853,0,0,0-192.776,26.244Z" fill="url(#linear-gradient-3)"/>
    <path id="Path_439" data-name="Path 439" d="M-182.861,26.244h1.543v4.411a.351.351,0,0,0,.33.331h2.865a.351.351,0,0,0,.33-.331V26.244h1.543c.22,0,.33-.111.551-.221a.865.865,0,0,0,.11-1.213l-3.3-4.191-.11-.111a.872.872,0,0,0-1.212.111l-3.306,4.191a.843.843,0,0,0-.22.551A.949.949,0,0,0-182.861,26.244Z" fill="url(#linear-gradient-4)"/>
    <path id="Path_440" data-name="Path 440" d="M-175.479,33.633h-17.848a.238.238,0,0,0-.221.221v1.1a.238.238,0,0,0,.221.22h17.848a.238.238,0,0,0,.221-.22v-1.1A.238.238,0,0,0-175.479,33.633Z" fill="url(#linear-gradient-5)"/>
    <g id="Group_1295" data-name="Group 1295">
      <path id="Path_441" data-name="Path 441" d="M-246.874-64.418a19.085,19.085,0,0,1-.881,5.4,63.167,63.167,0,0,1-5.289,11.58c-2.313,4.192-4.847,8.383-6.39,11.912a1.559,1.559,0,0,1-1.542.993,1.729,1.729,0,0,1-1.543-.993c-3.746-8.382-12.67-19.963-12.67-28.9a14.255,14.255,0,0,1,14.213-14.228A14.161,14.161,0,0,1-246.874-64.418Z" fill="#22b0f0"/>
    </g>
    <path id="Path_442" data-name="Path 442" d="M-247.755-59.124a63.174,63.174,0,0,1-5.289,11.581l-12.119-12.132,5.288-5.074,3.526-3.2Z" fill="url(#linear-gradient-6)"/>
    <path id="Path_443" data-name="Path 443" d="M-260.976-57.91a6.046,6.046,0,0,0,6.06-6.067,5.977,5.977,0,0,0-6.06-6.066,6.045,6.045,0,0,0-6.06,6.066A5.977,5.977,0,0,0-260.976-57.91Z" fill="url(#linear-gradient-7)"/>
    <g id="Group_1296" data-name="Group 1296">
      <path id="Path_444" data-name="Path 444" d="M-181.318-49.087a19.31,19.31,0,0,1-.772,4.853,52.894,52.894,0,0,1-4.847,10.588c-2.2,3.86-4.407,7.61-5.839,10.809a1.478,1.478,0,0,1-1.433.882,1.587,1.587,0,0,1-1.432-.882c-3.3-7.5-11.459-18.088-11.459-26.25a12.914,12.914,0,0,1,12.891-12.9A12.914,12.914,0,0,1-181.318-49.087Z" fill="#22b0f0"/>
    </g>
    <path id="Path_445" data-name="Path 445" d="M-182.2-44.234a52.894,52.894,0,0,1-4.847,10.588l-11.018-11.029,4.848-4.633,3.195-2.867Z" fill="url(#linear-gradient-8)"/>
    <path id="Path_446" data-name="Path 446" d="M-194.209-43.131a5.459,5.459,0,0,0,5.509-5.515,5.459,5.459,0,0,0-5.509-5.515,5.459,5.459,0,0,0-5.509,5.515A5.459,5.459,0,0,0-194.209-43.131Z" fill="url(#linear-gradient-9)"/>
    <path id="Path_447" data-name="Path 447" d="M-280.257-51.513a1.859,1.859,0,0,0,1.873-1.875,1.858,1.858,0,0,0-1.873-1.875,1.858,1.858,0,0,0-1.873,1.875A1.93,1.93,0,0,0-280.257-51.513Z" fill="#f9ba32"/>
    <path id="Path_448" data-name="Path 448" d="M-280.037,32.2a1.858,1.858,0,0,0,1.873-1.875,1.794,1.794,0,0,0-1.873-1.875,1.858,1.858,0,0,0-1.873,1.875A1.858,1.858,0,0,0-280.037,32.2Z" fill="#f9ba32"/>
    <path id="Path_449" data-name="Path 449" d="M-170.3-48.977a1.741,1.741,0,0,0,1.763-1.764,1.741,1.741,0,0,0-1.763-1.765,1.741,1.741,0,0,0-1.762,1.765A1.893,1.893,0,0,0-170.3-48.977Z" fill="#f9ba32"/>
  </g>
</svg>
