<svg xmlns="http://www.w3.org/2000/svg" xmlns:xlink="https://www.w3.org/1999/xlink" width="120" height="115" viewBox="0 0 120 115">
  <defs>
    <linearGradient id="linear-gradient" x1="-0.069" y1="17.42" x2="0.829" y2="16.484" gradientUnits="objectBoundingBox">
      <stop offset="0" stop-color="#f9ba32"/>
      <stop offset="1" stop-color="#f9ba32" stop-opacity="0"/>
    </linearGradient>
    <linearGradient id="linear-gradient-2" x1="0.394" y1="18.602" x2="0.526" y2="18.936" gradientUnits="objectBoundingBox">
      <stop offset="0" stop-color="#e3e7f5"/>
      <stop offset="0.991" stop-color="#ced5e6"/>
    </linearGradient>
    <linearGradient id="linear-gradient-3" x1="0.015" y1="170.64" x2="1.008" y2="170.64" gradientUnits="objectBoundingBox">
      <stop offset="0" stop-color="#83a6ff"/>
      <stop offset="1" stop-color="#5a78ff"/>
    </linearGradient>
    <linearGradient id="linear-gradient-4" x1="-0.664" y1="2.352" x2="0.528" y2="2.37" gradientUnits="objectBoundingBox">
      <stop offset="0" stop-color="#3f68d1"/>
      <stop offset="1" stop-color="#4d6cff"/>
    </linearGradient>
    <linearGradient id="linear-gradient-5" x1="1.553" y1="2.02" x2="0.651" y2="2.325" gradientUnits="objectBoundingBox">
      <stop offset="0" stop-color="#183c5f"/>
      <stop offset="1" stop-color="#446e96"/>
    </linearGradient>
    <linearGradient id="linear-gradient-6" x1="-0.001" y1="2.374" x2="0.999" y2="2.374" xlink:href="#linear-gradient-5"/>
    <linearGradient id="linear-gradient-7" x1="0.224" y1="4.306" x2="0.913" y2="3.641" gradientUnits="objectBoundingBox">
      <stop offset="0" stop-color="#092745"/>
      <stop offset="1" stop-color="#092745" stop-opacity="0"/>
    </linearGradient>
    <linearGradient id="linear-gradient-8" x1="0.836" y1="5.204" x2="0.252" y2="5.678" gradientUnits="objectBoundingBox">
      <stop offset="0.011" stop-color="#c2d1ff"/>
      <stop offset="1" stop-color="#fff"/>
    </linearGradient>
  </defs>
  <g id="Easy_Return" data-name="Easy Return" transform="translate(726.927 76.146)">
    <path id="Path_386" data-name="Path 386" d="M-612.235-18.665A57.8,57.8,0,0,1-623.889,16.1a58.96,58.96,0,0,1-14.423,13.4,56.91,56.91,0,0,1-31.269,9.356,57.373,57.373,0,0,1-57.346-57.4,57.373,57.373,0,0,1,57.346-57.4,57.785,57.785,0,0,1,31.269,9.24,58.983,58.983,0,0,1,14.423,13.4A56.472,56.472,0,0,1-612.235-18.665Z" fill="#eaeef9"/>
    <path id="Path_387" data-name="Path 387" d="M-627.322-71.121h-3.711v2.432h3.711Z" fill="#b3bfcf"/>
    <path id="Path_388" data-name="Path 388" d="M-627.322-71.121h-3.711v1.054h3.711Z" fill="#9fadbf"/>
    <path id="Path_389" data-name="Path 389" d="M-641.521-66.176l-2.017,2.026,1.452,1.459,2.017-2.026Z" fill="#b3bfcf"/>
    <path id="Path_390" data-name="Path 390" d="M-617.8-64.88l2.017,2.027,1.291-1.3-2.017-2.026Z" fill="#b3bfcf"/>
    <g id="Group_1290" data-name="Group 1290">
      <path id="Path_391" data-name="Path 391" d="M-628.936-32.945A18.05,18.05,0,0,0-610.944-51.02a18.05,18.05,0,0,0-17.992-18.074A18.049,18.049,0,0,0-646.927-51.02,18.05,18.05,0,0,0-628.936-32.945Z" fill="#f0f3f9"/>
      <path id="Path_392" data-name="Path 392" d="M-628.936-32.945A18.05,18.05,0,0,0-610.944-51.02a18.05,18.05,0,0,0-17.992-18.074A18.049,18.049,0,0,0-646.927-51.02,18.05,18.05,0,0,0-628.936-32.945Z" fill="none" stroke="#cdd5e4" stroke-miterlimit="10" stroke-width="0.552"/>
    </g>
    <path id="Path_393" data-name="Path 393" d="M-614.9-51.02v.487a14.089,14.089,0,0,1-14.038,13.616,14.089,14.089,0,0,1-14.038-13.616v-.487a14.039,14.039,0,0,1,13.554-14.1h.484A14.081,14.081,0,0,1-614.9-51.263Z" fill="#edf0fc"/>
    <path id="Path_394" data-name="Path 394" d="M-614.9-50.533a14.089,14.089,0,0,1-14.038,13.616,14.089,14.089,0,0,1-14.038-13.616A14.089,14.089,0,0,1-628.936-64.15,13.98,13.98,0,0,1-614.9-50.533Z" fill="#fff"/>
    <path id="Path_395" data-name="Path 395" d="M-625.144-42.023h-8.068a.725.725,0,0,1-.726-.729v-4.053a.725.725,0,0,1,.726-.729h8.068a.724.724,0,0,1,.726.729v4.053A.852.852,0,0,1-625.144-42.023Z" fill="#f2f5fc"/>
    <path id="Path_396" data-name="Path 396" d="M-616.753-50.29h-2.34a.725.725,0,0,1-.726-.73.725.725,0,0,1,.726-.729h2.34a.725.725,0,0,1,.726.729A.781.781,0,0,1-616.753-50.29Z" fill="#dae1ed"/>
    <path id="Path_397" data-name="Path 397" d="M-639.505-50.29h-2.339a.725.725,0,0,1-.727-.73.725.725,0,0,1,.727-.729h2.339a.724.724,0,0,1,.726.729A.724.724,0,0,1-639.505-50.29Z" fill="#dae1ed"/>
    <path id="Path_398" data-name="Path 398" d="M-629.258-37.727a.724.724,0,0,1-.726-.73v-2.35a.725.725,0,0,1,.726-.73.726.726,0,0,1,.726.73v2.35A.775.775,0,0,1-629.258-37.727Z" fill="#dae1ed"/>
    <path id="Path_399" data-name="Path 399" d="M-629.258-60.5a.724.724,0,0,1-.726-.729V-63.5a.724.724,0,0,1,.726-.729.725.725,0,0,1,.726.729v2.351A.86.86,0,0,1-629.258-60.5Z" fill="#dae1ed"/>
    <path id="Path_400" data-name="Path 400" d="M-629.1-49.074a2.089,2.089,0,0,0,2.1-2.108,2.088,2.088,0,0,0-2.1-2.107,2.088,2.088,0,0,0-2.1,2.107A2.089,2.089,0,0,0-629.1-49.074Z" fill="#f2f5fc"/>
    <path id="Path_401" data-name="Path 401" d="M-620.061-59.692a.631.631,0,0,0-.887,0l-7.5,7.943h-.08a.934.934,0,0,0-.968.972v.163l-1.211,1.3a.639.639,0,0,0,0,.892.444.444,0,0,0,.4.162.613.613,0,0,0,.4-.162l1.21-1.3h.081a.934.934,0,0,0,.968-.973v-.162l7.5-7.862A.671.671,0,0,0-620.061-59.692Z" fill="#dae1ed"/>
    <path id="Path_402" data-name="Path 402" d="M-620.626-60.179a.631.631,0,0,0-.887,0l-7.5,7.944h-.081a.934.934,0,0,0-.968.972v.162l-1.21,1.3a.639.639,0,0,0,0,.892.443.443,0,0,0,.4.162.618.618,0,0,0,.4-.162l1.21-1.3h.08a.935.935,0,0,0,.969-.973v-.162l7.5-7.862A.672.672,0,0,0-620.626-60.179Z" fill="#f9ba32"/>
    <path id="Path_403" data-name="Path 403" d="M-620.868-59.935l-10.246,10.7h-.161c-.081-.162-.081-.324.08-.4l9.843-10.374a.377.377,0,0,1,.484-.081Z" fill="#d89b21"/>
    <path id="Path_404" data-name="Path 404" d="M-625.547-74.525v2.351a1.622,1.622,0,0,1-1.614,1.621H-631.2a1.622,1.622,0,0,1-1.613-1.621v-2.351a1.622,1.622,0,0,1,1.613-1.621h4.034A1.622,1.622,0,0,1-625.547-74.525Z" fill="#1c3754"/>
    <path id="Path_405" data-name="Path 405" d="M-625.547-74.525v2.351a1.622,1.622,0,0,1-1.614,1.621H-631.2a1.622,1.622,0,0,1-1.613-1.621v-.406a1.363,1.363,0,0,0,1.291,1.135h4.114a1.07,1.07,0,0,0,1.049-1.053v-1.7c0-1.215-.242-1.621-.807-1.945A1.622,1.622,0,0,1-625.547-74.525Z" fill="#172d45"/>
    <path id="Path_406" data-name="Path 406" d="M-641.118-66.014l-2.178,2.188a1.263,1.263,0,0,1-1.775,0l-1.291-1.3a1.276,1.276,0,0,1,0-1.783l2.178-2.188a1.261,1.261,0,0,1,1.775,0l1.291,1.3A1.276,1.276,0,0,1-641.118-66.014Z" fill="#1c3754"/>
    <path id="Path_407" data-name="Path 407" d="M-616.915-66.014l2.179,2.188a1.263,1.263,0,0,0,1.775,0l1.29-1.3a1.276,1.276,0,0,0,0-1.783l-2.178-2.188a1.261,1.261,0,0,0-1.775,0l-1.291,1.3A1.466,1.466,0,0,0-616.915-66.014Z" fill="#1c3754"/>
    <path id="Path_408" data-name="Path 408" d="M-629.1-51.021a.173.173,0,0,0,.161-.162.173.173,0,0,0-.161-.161.173.173,0,0,0-.161.161A.173.173,0,0,0-629.1-51.021Z" fill="#1c3754"/>
    <path id="Path_409" data-name="Path 409" d="M-614.9-51.263H-629.42v-13.86h.484A14.029,14.029,0,0,1-614.9-51.263Z" opacity="0.4" fill="url(#linear-gradient)" style="isolation: isolate"/>
    <path id="Path_410" data-name="Path 410" d="M-721.735-55.279a1.963,1.963,0,0,0,1.962-1.964,1.962,1.962,0,0,0-1.962-1.963,1.962,1.962,0,0,0-1.961,1.963A1.962,1.962,0,0,0-721.735-55.279Z" fill="#f9ba32"/>
    <path id="Path_411" data-name="Path 411" d="M-626.081,38.55a1.846,1.846,0,0,0,1.846-1.848,1.846,1.846,0,0,0-1.846-1.848,1.847,1.847,0,0,0-1.846,1.848A1.847,1.847,0,0,0-626.081,38.55Z" fill="#f9ba32"/>
    <path id="Path_412" data-name="Path 412" d="M-637.158-6.62-649.85,24.1a5.179,5.179,0,0,0-.462,2.31l-.115,2.541h-49.961a3.036,3.036,0,0,1-3-3.234l1.615-16.4a6.675,6.675,0,0,0-5.769-7.276L-716.773.888l2.308-15.015C-712.158-29.143-705.35-29.6-700.85-31.8c2.192-1.04,4.731-2.079,6.923-3,1.154-.462,2.308-.809,3-1.155a6.757,6.757,0,0,1,2.654-.462,55.246,55.246,0,0,1,8.538,1.27c2.539.578,5.654,1.155,8.654,1.733a14.77,14.77,0,0,1,2.193.462,33.137,33.137,0,0,1,14.423,6.7l15.23,12.243A5.9,5.9,0,0,1-637.158-6.62Z" fill="#23476f"/>
    <path id="Path_413" data-name="Path 413" d="M-673.042-41.386v7.392a9.169,9.169,0,0,1-9.347,9.01,9.428,9.428,0,0,1-6.576-2.657,8.741,8.741,0,0,1-2.77-6.353V-55.708Z" fill="#fff"/>
    <path id="Path_414" data-name="Path 414" d="M-673.042-41.386v7.161c-10.731-1.039-14.308-11.665-12.808-10.4C-684.581-43.349-677.773-42.079-673.042-41.386Z" fill="url(#linear-gradient-2)"/>
    <path id="Path_415" data-name="Path 415" d="M-666.581-67.142c.116,11.434,1.616,22.753-1.038,24.832a13.064,13.064,0,0,1-14.423.578c-5.885-3.465-6.577-5.66-6.577-5.66l-3.231-3.234.461-13.282,9.347-6.7Z" fill="#fff"/>
    <path id="Path_416" data-name="Path 416" d="M-666.581-67.142s1.154,3.465-3.807,3.349-10.962-1.732-13.5-2.194c-2.539-.578-4.154,2.31-4.154,2.31v4.389l-.577,6.814s-4.5-2.079-4.616-4.735a23.335,23.335,0,0,1,0-3.465l5.539-5.082s7.154-2.657,7.5-3c.346-.231,7.731-1.964,7.731-1.964s5.077.231,5.538.924a6.274,6.274,0,0,1,.462,1.733A5.208,5.208,0,0,0-666.581-67.142Z" fill="#1c3754"/>
    <path id="Path_417" data-name="Path 417" d="M-690.793-49.951a3.42,3.42,0,0,0,2.848-3.893,3.419,3.419,0,0,0-3.58-3.231,3.421,3.421,0,0,0-2.848,3.893A3.419,3.419,0,0,0-690.793-49.951Z" fill="#fff"/>
    <path id="Path_418" data-name="Path 418" d="M-666.35-65.41c-.115,0-.115,0-.231.116-2.192-2.888-5.769-4.505-12.461-2.079h-.116a7.905,7.905,0,0,1-.923.346,4.112,4.112,0,0,0-1.038.462,39.918,39.918,0,0,0-6.462,3.7c-2.884,1.964-5.423,4.505-5.538,6.584a41.145,41.145,0,0,1-1.154-8.316c-.115-5.2,6.346-10.627,12.808-11.435a11.628,11.628,0,0,1,8.653,2.31,27.007,27.007,0,0,1,5.539,5.891Z" fill="#22b0f0"/>
    <path id="Path_419" data-name="Path 419" d="M-658.619-71.763c-.577,2.887-5.077,5.2-7.962,6.352-5.077-6.583-15.115-1.617-21,2.541.116-.115.231-.808.346-.924C-683.658-72.572-657-80.31-658.619-71.763Z" fill="#0d8bb7"/>
    <path id="Path_420" data-name="Path 420" d="M-669.927-55.592a1.386,1.386,0,0,0,1.385-1.386,1.385,1.385,0,0,0-1.385-1.386,1.384,1.384,0,0,0-1.384,1.386A1.385,1.385,0,0,0-669.927-55.592Z" fill="#1c3754"/>
    <path id="Path_421" data-name="Path 421" d="M-679.735-55.592a1.386,1.386,0,0,0,1.385-1.386,1.385,1.385,0,0,0-1.385-1.386,1.385,1.385,0,0,0-1.384,1.386A1.386,1.386,0,0,0-679.735-55.592Z" fill="#1c3754"/>
    <path id="Path_422" data-name="Path 422" d="M-630.7-21.058h-2.769c-.347,0-.462-.116-.462-.462s.115-.461.462-.461h2.769c.346,0,.461.115.461.461A.423.423,0,0,1-630.7-21.058Z" fill="url(#linear-gradient-3)"/>
    <path id="Path_423" data-name="Path 423" d="M-606.927-23.137V28.146a2.779,2.779,0,0,1-.462,1.732c-.115.116-.23.462-.461.578l-.231.231a3.39,3.39,0,0,1-2.538,1.039h-15.462l-3-58.212h18.808A3.278,3.278,0,0,1-606.927-23.137Z" fill="url(#linear-gradient-4)"/>
    <g id="Group_1291" data-name="Group 1291">
      <path id="Path_424" data-name="Path 424" d="M-606.927-23.137V28.146a2.779,2.779,0,0,1-.462,1.732c-.115.116-.23.462-.461.578l-.231.231a3.39,3.39,0,0,1-2.538,1.039h-15.462l-3-58.212h18.808A3.278,3.278,0,0,1-606.927-23.137Z" fill="url(#linear-gradient-5)"/>
    </g>
    <g id="Group_1292" data-name="Group 1292">
      <path id="Path_425" data-name="Path 425" d="M-625.965-23.483V31.611h-50.654a3.4,3.4,0,0,1-3.462-3.465V-23.137a3.377,3.377,0,0,1,3.462-3.349h47.538A3.082,3.082,0,0,1-625.965-23.483Z" fill="url(#linear-gradient-6)"/>
    </g>
    <path id="Path_426" data-name="Path 426" d="M-647.427-26.486v15.362A1.029,1.029,0,0,1-648-10.2l-2.077.924a.71.71,0,0,1-.807-.116l-3.231-2.541a1.013,1.013,0,0,0-.808-.115l-1.731.924a.624.624,0,0,1-.923-.462v-14.9Z" fill="#22b0f0"/>
    <path id="Path_427" data-name="Path 427" d="M-629.081-26.486a3.03,3.03,0,0,1,3.231,1.848,3.39,3.39,0,0,1,.231,1.04v10.279L-625.735,1.7l-.115,15.015-.231,15.015-.115-15.015L-626.312,1.7l-.115-15.015v-9.355a4.119,4.119,0,0,0-.115-1.733A3.37,3.37,0,0,0-629.081-26.486Z" fill="#8299ff"/>
    <path id="Path_428" data-name="Path 428" d="M-626.081,22.024v6.7A6.006,6.006,0,0,1-627,30.8a2.618,2.618,0,0,1-1.846.693h-7.731l-5.538-6.352,1.731-1.848-4.731-5.313,6.231.462,5.077-2.31-3.116-2.657.346-1.732Z" fill="url(#linear-gradient-7)"/>
    <path id="Path_429" data-name="Path 429" d="M-645,16.249a2.153,2.153,0,0,0-.231.809,1.281,1.281,0,0,0,1.27,1.27H-642v6.353a.423.423,0,0,0,.462.462H-636a.423.423,0,0,0,.462-.462V18.328h1.73A2.13,2.13,0,0,0-633,18.1a1.3,1.3,0,0,0,.231-1.848L-637.85,9.9c-.115-.116-.115-.231-.231-.231a1.414,1.414,0,0,0-1.846.231Z" fill="url(#linear-gradient-8)"/>
    <path id="Path_430" data-name="Path 430" d="M-702,12.322l2.077-20.674,2.192,22.176" fill="#112133"/>
    <g id="Group_1293" data-name="Group 1293">
      <path id="Path_431" data-name="Path 431" d="M-655.85,18.328a1.524,1.524,0,0,1-1.269,1.617l-1.269.116s-4.385-.693-4.616,2.425c-.231,2.541,1.039,3.465,4.5,7.739a1.656,1.656,0,0,1-1.154,2.656c-8.654.693-9,.693-15.807-6.006a5,5,0,0,0-3.462-1.5l-17.654-.116-15.692-.231a7,7,0,0,1-4.038-6.93l.923-17.325,14.423,1.848-.808,7.97,24.577,4.966A54.7,54.7,0,0,0-666,16.6c3.692-.116,6.808.115,8.885.231A2.1,2.1,0,0,1-655.85,18.328Z" fill="#fff"/>
    </g>
  </g>
</svg>
