<svg xmlns="http://www.w3.org/2000/svg" xmlns:xlink="https://www.w3.org/1999/xlink" width="120.615" height="109" viewBox="0 0 120.615 109">
  <defs>
    <linearGradient id="linear-gradient" y1="1.133" x2="0.999" y2="1.133" gradientUnits="objectBoundingBox">
      <stop offset="0" stop-color="#183c5f"/>
      <stop offset="1" stop-color="#446e96"/>
    </linearGradient>
    <linearGradient id="linear-gradient-2" y1="0.789" x2="1.004" y2="0.789" gradientUnits="objectBoundingBox">
      <stop offset="0" stop-color="#bdcfff"/>
      <stop offset="1" stop-color="#91a5ff" stop-opacity="0.502"/>
    </linearGradient>
    <linearGradient id="linear-gradient-3" x1="0" y1="2.484" x2="1.003" y2="2.484" xlink:href="#linear-gradient-2"/>
    <linearGradient id="linear-gradient-4" x1="0.007" y1="5.454" x2="0.998" y2="5.454" xlink:href="#linear-gradient-2"/>
  </defs>
  <g id="Pay_at_Door" data-name="Pay at Door" transform="translate(-7 -3)">
    <path id="Path_362" data-name="Path 362" d="M124.869,58.124a53.667,53.667,0,0,1-24.436,45.118A53,53,0,0,1,71.132,112a53.915,53.915,0,1,1,42.68-86.579A53.487,53.487,0,0,1,124.869,58.124Z" fill="#eaeef9"/>
    <path id="Path_363" data-name="Path 363" d="M8.88,64.332a1.885,1.885,0,0,0,0-3.769A1.96,1.96,0,0,0,7,62.558,1.777,1.777,0,0,0,8.88,64.332Z" fill="#22b0f0"/>
    <path id="Path_364" data-name="Path 364" d="M20.047,105.238a1.885,1.885,0,1,0-1.879-1.885A1.937,1.937,0,0,0,20.047,105.238Z" fill="#f9ba32"/>
    <path id="Path_365" data-name="Path 365" d="M44.5,86A2.5,2.5,0,1,0,42,83.5,2.573,2.573,0,0,0,44.5,86Z" fill="#f9ba32"/>
    <path id="Path_366" data-name="Path 366" d="M121.583,24.449a4.059,4.059,0,0,0,.221-5.765,4.162,4.162,0,0,0-5.86-.222,4.059,4.059,0,0,0-.221,5.765A4.162,4.162,0,0,0,121.583,24.449Z" fill="#eaeef9"/>
    <path id="Path_367" data-name="Path 367" d="M106.589,12.545a1.774,1.774,0,1,0-1.769-1.773A1.749,1.749,0,0,0,106.589,12.545Z" fill="#22b0f0"/>
    <path id="Path_368" data-name="Path 368" d="M64.5,62.336V75.307a2.178,2.178,0,0,0,2.1,2.106,5.96,5.96,0,0,0,5.971-5.654l.553-11.307" fill="#eaeef9"/>
    <path id="Path_369" data-name="Path 369" d="M64.5,62.336V75.307a2.178,2.178,0,0,0,2.1,2.106,5.96,5.96,0,0,0,5.971-5.654l.553-11.307" fill="none" stroke="#1c3754" stroke-miterlimit="10" stroke-width="1"/>
    <path id="Path_370" data-name="Path 370" d="M68.7,64.221l4.644,23.391a2.111,2.111,0,0,0,2.432,1.662,6.041,6.041,0,0,0,4.755-6.762l-2.764-18.07" fill="#fff"/>
    <path id="Path_371" data-name="Path 371" d="M68.7,64.221l4.644,23.391a2.111,2.111,0,0,0,2.432,1.662,6.041,6.041,0,0,0,4.755-6.762l-2.764-18.07" fill="none" stroke="#1c3754" stroke-miterlimit="10" stroke-width="1"/>
    <g id="Group_1288" data-name="Group 1288">
      <path id="Path_372" data-name="Path 372" d="M12.529,49.81,74.78,68.877A5.177,5.177,0,0,0,81.3,65.44L92.472,28.858a5.2,5.2,0,0,0-3.428-6.541L26.682,3.25a5.178,5.178,0,0,0-6.524,3.436L8.99,43.269A5.3,5.3,0,0,0,12.529,49.81Z" fill="url(#linear-gradient)"/>
    </g>
    <path id="Path_373" data-name="Path 373" d="M79.2,60.119h-.332L57.089,53.468a1.089,1.089,0,0,1,.553-2.107l21.782,6.652a1.2,1.2,0,0,1,.774,1.33A1.06,1.06,0,0,1,79.2,60.119Z" fill="url(#linear-gradient-2)"/>
    <path id="Path_374" data-name="Path 374" d="M76.66,52.027h-.332L50.454,44.045a1.089,1.089,0,0,1,.553-2.106L76.881,49.92a1.2,1.2,0,0,1,.774,1.331A1.063,1.063,0,0,1,76.66,52.027Z" fill="url(#linear-gradient-3)"/>
    <path id="Path_375" data-name="Path 375" d="M87.938,44.932c7.851,1.774,17.36,3.991,22.668,5.21a6.989,6.989,0,0,1,5.2,4.989c1,3.658,2.433,8.979,3.207,12.97,1.327,6.651,1.327,12.416,5.86,19.289.443.665.995,1.441,1.438,2.106a3.836,3.836,0,0,1-.111,4.545s-9.4,8.869-13.711,12.971a3.988,3.988,0,0,1-4.865.443c-4.312-2.661-12.826-7.982-15.48-10.31A34.29,34.29,0,0,1,83.4,85.5c-2.212-4.656-3.428-8.2-11.278-15.963-3.87-3.769-6.745-7.206-8.846-9.645a5.823,5.823,0,0,1,.442-7.87,5.929,5.929,0,0,1,8.4,0l19.46,19.4s-2.875-3.1-1.769-11.2l-5.75-2.882" fill="#fff"/>
    <path id="Path_376" data-name="Path 376" d="M87.938,44.932c7.851,1.774,17.36,3.991,22.668,5.21a6.989,6.989,0,0,1,5.2,4.989c1,3.658,2.433,8.979,3.207,12.97,1.327,6.651,1.327,12.416,5.86,19.289.443.665.995,1.441,1.438,2.106a3.836,3.836,0,0,1-.111,4.545s-9.4,8.869-13.711,12.971a3.988,3.988,0,0,1-4.865.443c-4.312-2.661-12.826-7.982-15.48-10.31A34.29,34.29,0,0,1,83.4,85.5c-2.212-4.656-3.428-8.2-11.278-15.963-3.87-3.769-6.745-7.206-8.846-9.645a5.823,5.823,0,0,1,.442-7.87,5.929,5.929,0,0,1,8.4,0l19.46,19.4s-2.875-3.1-1.769-11.2l-5.75-2.882" fill="none" stroke="#183c5f" stroke-linecap="round" stroke-linejoin="round" stroke-width="1"/>
    <path id="Path_377" data-name="Path 377" d="M93.688,73.2a13.614,13.614,0,0,1-2.1-2.217Z" fill="#fff"/>
    <path id="Path_378" data-name="Path 378" d="M93.688,73.2a13.614,13.614,0,0,1-2.1-2.217" fill="none" stroke="#1c3754" stroke-linecap="round" stroke-linejoin="round" stroke-width="1"/>
    <path id="Path_379" data-name="Path 379" d="M64.941,58.7c.444.54,1,1.188,1.551,1.837a1.3,1.3,0,0,0,1.883.108l4.21-3.782a1.224,1.224,0,0,0,0-1.837l-1.662-1.837A4.271,4.271,0,0,0,68.043,52a4,4,0,0,0-2.991,1.3A4.161,4.161,0,0,0,64.941,58.7Z" fill="#eaeef9"/>
    <path id="Path_380" data-name="Path 380" d="M37.96,39.832a1,1,0,0,0,.553-.11,1.39,1.39,0,0,0,.774-1.774,7.068,7.068,0,0,1-.111-4.767,7.543,7.543,0,0,1,2.875-3.769,1.368,1.368,0,0,0-1.437-2.328A9.661,9.661,0,0,0,36.633,32.4a9.815,9.815,0,0,0,.221,6.651A1.1,1.1,0,0,0,37.96,39.832Z" fill="#fff"/>
    <path id="Path_381" data-name="Path 381" d="M32.431,42.715a.992.992,0,0,0,.553-.111,1.429,1.429,0,0,0,.664-1.885,13.514,13.514,0,0,1-.553-9.534,13.23,13.23,0,0,1,5.971-7.427,1.368,1.368,0,0,0-1.438-2.328A16.092,16.092,0,0,0,31.1,41.939,1.34,1.34,0,0,0,32.431,42.715Z" fill="#fff"/>
    <path id="Path_382" data-name="Path 382" d="M27.124,45.486a.827.827,0,0,0,.553-.111,1.427,1.427,0,0,0,.663-1.884,19.954,19.954,0,0,1-.884-14.079A19.356,19.356,0,0,1,36.3,18.437,1.388,1.388,0,0,0,34.975,16,21.771,21.771,0,0,0,24.913,28.525a22.431,22.431,0,0,0,1,16.074A1.409,1.409,0,0,0,27.124,45.486Z" fill="#fff"/>
    <path id="Path_383" data-name="Path 383" d="M82.914,34.829a5.2,5.2,0,1,0-6.505,3.43A5.213,5.213,0,0,0,82.914,34.829Z" fill="#f9ba32"/>
    <path id="Path_384" data-name="Path 384" d="M71.353,36.4a5.211,5.211,0,1,0-5.2-5.21A5.2,5.2,0,0,0,71.353,36.4Z" fill="url(#linear-gradient-4)"/>
  </g>
</svg>
