<svg xmlns="http://www.w3.org/2000/svg" xmlns:xlink="https://www.w3.org/1999/xlink" width="120" height="114" viewBox="0 0 120 114">
  <defs>
    <linearGradient id="linear-gradient" x1="0.001" y1="6.684" x2="1" y2="6.684" gradientUnits="objectBoundingBox">
      <stop offset="0" stop-color="#183c5f"/>
      <stop offset="1" stop-color="#446e96"/>
    </linearGradient>
    <linearGradient id="linear-gradient-2" x1="-0.003" y1="25.572" x2="1.001" y2="25.572" xlink:href="#linear-gradient"/>
    <linearGradient id="linear-gradient-3" x1="0.848" y1="41.796" x2="0.179" y2="42.545" gradientUnits="objectBoundingBox">
      <stop offset="0.011" stop-color="#c2d1ff"/>
      <stop offset="1" stop-color="#fff"/>
    </linearGradient>
  </defs>
  <g id="Multiple_Credit_Cards" data-name="Multiple Credit Cards" transform="translate(737.077 263.135)">
    <path id="Path_464" data-name="Path 464" d="M-730.07-240.4a1.952,1.952,0,0,0,1.248-2.457,1.942,1.942,0,0,0-2.449-1.252,1.952,1.952,0,0,0-1.247,2.457A1.942,1.942,0,0,0-730.07-240.4Z" fill="#f9ba32"/>
    <path id="Path_465" data-name="Path 465" d="M-631.531-249.119a4.369,4.369,0,0,0,.276-6.157,4.332,4.332,0,0,0-6.136-.277,4.369,4.369,0,0,0-.276,6.157A4.332,4.332,0,0,0-631.531-249.119Z" fill="#f9ba32"/>
    <path id="Path_466" data-name="Path 466" d="M-618.906-256.6a1.832,1.832,0,0,0,1.829-1.835,1.832,1.832,0,0,0-1.829-1.835,1.832,1.832,0,0,0-1.828,1.835A1.832,1.832,0,0,0-618.906-256.6Z" fill="#f9ba32"/>
    <path id="Path_467" data-name="Path 467" d="M-727.591-154.64a1.832,1.832,0,0,0,1.829-1.835,1.832,1.832,0,0,0-1.829-1.835,1.832,1.832,0,0,0-1.829,1.835A1.832,1.832,0,0,0-727.591-154.64Z" fill="#f9ba32"/>
    <path id="Path_468" data-name="Path 468" d="M-680.277-149.135a56.9,56.9,0,0,0,56.8-57,56.9,56.9,0,0,0-56.8-57,56.9,56.9,0,0,0-56.8,57A56.9,56.9,0,0,0-680.277-149.135Z" fill="#eaeef9"/>
    <path id="Path_469" data-name="Path 469" d="M-629.877-224.714V-164.5a7.427,7.427,0,0,1-7.428,7.455h-71.886a21.519,21.519,0,0,1-13.486-5.161,5.887,5.887,0,0,1-2.171-4.588c0-16.286-.343-72.827-.343-72.827l14.057,6.308,73.715,1.147A7.452,7.452,0,0,1-629.877-224.714Z" fill="url(#linear-gradient)"/>
    <path id="Path_470" data-name="Path 470" d="M-724.734-230.1a.769.769,0,0,1-.685-.459,5.36,5.36,0,0,1-.343-1.949.766.766,0,0,1,.685-.8.66.66,0,0,1,.686.688,5.731,5.731,0,0,0,.229,1.376.686.686,0,0,1-.457.918C-724.505-230.1-724.619-230.1-724.734-230.1Z" fill="#f2f5ff" opacity="0.4" style="isolation: isolate"/>
    <path id="Path_471" data-name="Path 471" d="M-644.162-163.242h-2.4a.66.66,0,0,1-.686-.688.739.739,0,0,1,.686-.688h2.4a2.5,2.5,0,0,0,.914-.115c.457,0,.8.23.8.689s-.229.8-.686.8A3.112,3.112,0,0,0-644.162-163.242Zm-8.115,0h-3.428a.66.66,0,0,1-.686-.688.739.739,0,0,1,.686-.688h3.428a.66.66,0,0,1,.686.688A.66.66,0,0,1-652.277-163.242Zm-9.028,0h-3.429a.66.66,0,0,1-.686-.688.739.739,0,0,1,.686-.688h3.429a.659.659,0,0,1,.685.688A.738.738,0,0,1-661.3-163.242Zm-9.143,0h-3.429a.659.659,0,0,1-.685-.688.738.738,0,0,1,.685-.688h3.429a.66.66,0,0,1,.686.688A.66.66,0,0,1-670.448-163.242Zm-9.029,0h-3.428a.66.66,0,0,1-.686-.688.739.739,0,0,1,.686-.688h3.428a.66.66,0,0,1,.686.688A.739.739,0,0,1-679.477-163.242Zm-9.143,0h-3.428a.66.66,0,0,1-.686-.688.739.739,0,0,1,.686-.688h3.428a.66.66,0,0,1,.686.688A.66.66,0,0,1-688.62-163.242Zm-9.028,0h-3.429a.659.659,0,0,1-.685-.688.738.738,0,0,1,.685-.688h3.429a.66.66,0,0,1,.686.688A.739.739,0,0,1-697.648-163.242Zm-9.143,0h-3.429c-.457,0-.685-.344-.685-.8s.343-.689.8-.689h3.314a.661.661,0,0,1,.686.689A.757.757,0,0,1-706.791-163.242Zm-8.914-1.261h-.229a20.086,20.086,0,0,1-3.2-1.491.927.927,0,0,1-.343-1.032.92.92,0,0,1,1.029-.344,17.227,17.227,0,0,0,2.971,1.376.779.779,0,0,1,.457.917C-715.134-164.618-715.362-164.5-715.705-164.5Zm77.371-1.606a.688.688,0,0,1-.457-.114.728.728,0,0,1-.114-1.033,5.077,5.077,0,0,0,1.257-2.752.707.707,0,0,1,.914-.574.709.709,0,0,1,.571.918,6.968,6.968,0,0,1-1.6,3.326A.872.872,0,0,1-638.334-166.109Zm1.6-8.716a.66.66,0,0,1-.686-.688v-3.441a.66.66,0,0,1,.686-.688.739.739,0,0,1,.686.688v3.441A.739.739,0,0,1-636.734-174.825Zm0-9.175a.66.66,0,0,1-.686-.688v-3.441a.66.66,0,0,1,.686-.688.739.739,0,0,1,.686.688v3.441A.739.739,0,0,1-636.734-184Zm0-9.06a.661.661,0,0,1-.686-.689v-3.44a.66.66,0,0,1,.686-.688.739.739,0,0,1,.686.688v3.44A.74.74,0,0,1-636.734-193.06Zm0-9.176a.66.66,0,0,1-.686-.688v-3.44a.66.66,0,0,1,.686-.688.739.739,0,0,1,.686.688v3.44A.739.739,0,0,1-636.734-202.236Zm0-9.06a.66.66,0,0,1-.686-.688v-3.441a.66.66,0,0,1,.686-.688.739.739,0,0,1,.686.688v3.441A.739.739,0,0,1-636.734-211.3Zm-.686-9.06a.71.71,0,0,1-.685-.459,7.835,7.835,0,0,0-1.943-2.408.728.728,0,0,1-.114-1.033.72.72,0,0,1,1.028-.114,7.689,7.689,0,0,1,2.286,2.867.789.789,0,0,1-.343,1.032C-637.191-220.356-637.3-220.356-637.42-220.356Zm-7.428-4.244h-3.429c-.457,0-.685-.344-.685-.8a.66.66,0,0,1,.685-.688h3.429c.457,0,.686.344.686.8A.739.739,0,0,1-644.848-224.6Zm-9.143,0h-3.429c-.457,0-.685-.344-.685-.8a.66.66,0,0,1,.685-.688h3.429c.457,0,.686.344.686.8C-653.191-224.944-653.534-224.6-653.991-224.6Zm-9.029-.114h-3.428c-.457,0-.686-.344-.686-.8a.66.66,0,0,1,.686-.688h3.428c.458,0,.686.344.686.8A.739.739,0,0,1-663.02-224.714Zm-9.142,0h-3.429c-.457,0-.686-.344-.686-.8a.66.66,0,0,1,.686-.688h3.429c.457,0,.685.344.685.8C-671.362-225.058-671.705-224.714-672.162-224.714Zm-9.029-.115h-3.429c-.457,0-.685-.344-.685-.8a.659.659,0,0,1,.685-.688h3.429c.457,0,.686.344.686.8A.607.607,0,0,1-681.191-224.829Zm-9.143,0h-3.428c-.458,0-.686-.344-.686-.8a.66.66,0,0,1,.686-.688h3.428c.457,0,.686.344.686.8C-689.534-225.173-689.877-224.829-690.334-224.829Zm-9.028,0h-3.429c-.457,0-.686-.344-.686-.8a.66.66,0,0,1,.686-.688h3.429c.457,0,.685.344.685.8A.659.659,0,0,1-699.362-224.829Zm-9.029-.115h-3.429c-.457,0-.685-.344-.685-.8a.66.66,0,0,1,.685-.688h3.429c.457,0,.686.344.686.8A.739.739,0,0,1-708.391-224.944Zm-9.143-.229h-.114l-1.372-.344-.342-.115-1.715-.688a.757.757,0,0,1-.343-1.032.677.677,0,0,1,1.029-.344,6.626,6.626,0,0,0,1.6.573l.343.115a4.038,4.038,0,0,0,1.143.229.709.709,0,0,1,.571.918A.836.836,0,0,1-717.534-225.173Z" fill="#f2f5ff" opacity="0.4" style="isolation: isolate"/>
    <path id="Path_472" data-name="Path 472" d="M-723.362-169.205a.87.87,0,0,1-.572-.23,7.651,7.651,0,0,1-1.028-1.6.928.928,0,0,1,.342-1.033.921.921,0,0,1,1.029.345,4.754,4.754,0,0,0,.8,1.261.727.727,0,0,1-.114,1.032A.867.867,0,0,1-723.362-169.205Z" fill="#f2f5ff" opacity="0.4" style="isolation: isolate"/>
    <path id="Path_473" data-name="Path 473" d="M-638.562-236.986v4.817h-5.143l-71.086-.344a15.324,15.324,0,0,1-4-.574c-.114,0-.229-.114-.343-.114-3.543-1.033-5.943-3.441-5.943-6.194,0-2.523,2.057-4.587,5.029-5.734a10.735,10.735,0,0,1,3.428-.8c.458,0,1.029-.114,1.6-.114h67.429a11.192,11.192,0,0,1,1.943.229,7.358,7.358,0,0,1,1.486.459A8.91,8.91,0,0,1-638.562-236.986Z" fill="#576fff"/>
    <path id="Path_474" data-name="Path 474" d="M-643.591-232.972l-.343.344h-70.857a15.324,15.324,0,0,1-4-.573l-.343-2.982-.914-9.175-.114-.918a3.207,3.207,0,0,1,2.857-3.555l68.686-7.226a3.2,3.2,0,0,1,3.542,2.868l.915,8.6.114.8.457,4.588.572,4.931A4.227,4.227,0,0,1-643.591-232.972Z" fill="#22b0f0"/>
    <path id="Path_475" data-name="Path 475" d="M-643.591-238.362v6.193l-71.086-.344a15.324,15.324,0,0,1-4-.574c-.114,0-.228-.114-.343-.114v-5.161a3.179,3.179,0,0,1,2.515-3.1c.228,0,.457-.115.685-.115h69.029a3.365,3.365,0,0,1,1.143.23,2.956,2.956,0,0,1,1.6,1.261A4.835,4.835,0,0,1-643.591-238.362Z" fill="#fff"/>
    <path id="Path_476" data-name="Path 476" d="M-644.277-204.185a9.052,9.052,0,0,0-6.4,2.638,9.115,9.115,0,0,0-2.628,6.422v.459a9.049,9.049,0,0,0,9.028,8.6h14.4v-18.12Z" fill="#1d3099" opacity="0.2" style="isolation: isolate"/>
    <path id="Path_477" data-name="Path 477" d="M-629.877-207.626v2.179h-15.085a9.05,9.05,0,0,0-6.4,2.638,9.258,9.258,0,0,0-2.629,5.964v.459a8.991,8.991,0,0,0,9.029,9.06h14.628a2.065,2.065,0,0,0,1.6-.574.87.87,0,0,0,.228-.458v-18.236C-628.506-207.052-629.077-207.511-629.877-207.626Z" fill="url(#linear-gradient-2)"/>
    <path id="Path_478" data-name="Path 478" d="M-645.648-190.308a6.068,6.068,0,0,0,6.057-6.078,6.068,6.068,0,0,0-6.057-6.079,6.068,6.068,0,0,0-6.057,6.079A6.068,6.068,0,0,0-645.648-190.308Z" fill="url(#linear-gradient-3)"/>
    <path id="Path_479" data-name="Path 479" d="M-733.534-225.517a2.862,2.862,0,0,0,2.857-2.867,2.862,2.862,0,0,0-2.857-2.868,2.862,2.862,0,0,0-2.857,2.868A2.862,2.862,0,0,0-733.534-225.517Z" fill="#f9ba32"/>
  </g>
</svg>
