<svg xmlns="http://www.w3.org/2000/svg" xmlns:xlink="https://www.w3.org/1999/xlink" width="131.224" height="113" viewBox="0 0 131.224 113">
  <defs>
    <linearGradient id="linear-gradient" x1="0.496" y1="7.343" x2="0.519" y2="6.511" gradientUnits="objectBoundingBox">
      <stop offset="0" stop-color="#183c5f"/>
      <stop offset="1" stop-color="#446e96"/>
    </linearGradient>
  </defs>
  <g id="Instant_Transfer" data-name="Instant Transfer" transform="translate(904.682 96.393)">
    <path id="Path_450" data-name="Path 450" d="M-779.926-39.837a56.928,56.928,0,0,1-4.557,22.266A56.728,56.728,0,0,1-803.712,6.253a55.961,55.961,0,0,1-32.677,10.354,56.5,56.5,0,0,1-56.464-56.444,56.583,56.583,0,0,1,3.112-18.481,52.092,52.092,0,0,1,5.558-11.467,56.508,56.508,0,0,1,47.571-26.608h2.668a57.8,57.8,0,0,1,11.67,1.67,54.064,54.064,0,0,1,16.006,6.9,56.243,56.243,0,0,1,22.341,26.608l1.334,3.786A57.634,57.634,0,0,1-779.926-39.837Z" fill="#c5d3e8"/>
    <path id="Path_451" data-name="Path 451" d="M-784.038-61.1a1.833,1.833,0,0,0-1-.557c-.889-.334-3,.111-3.223-2.338,0-.111-.111-.223-.222-.445-.445.556-.889,1-1.556,1.781-.556-1.113-1-2.115-1.445-3.229-.334.334-.556.668-.889.78-.445.222-1,.556-1.334.334-.889-.446-.889-2.449-1-3.006-2.111.779-3.223-1-5-1.336-.223,1.336-.445,2.783-.667,4.23-5.78,1.448-5.446.891-8.781-4.9a6.248,6.248,0,0,1,4-1.559c2.668.112,5.224-3.34,4.78-4.119-.778-1.113-.445-2.338-.222-3.674a2.813,2.813,0,0,0-1.334-.222,1.848,1.848,0,0,1-2.112-1.336c-.667-1.782-3.112.222-3.668-3.118-.667-4.008.222-3.9,1.445-4.008a54.069,54.069,0,0,0-16.005-6.9,7.44,7.44,0,0,0-.778,1.225c-1.445,3.006-2.668,1.113-4.335,3.006-1.445,1.67-2.89,3.339-4.335,5.121-2.112-1.114-2.779-3.118-3.335-5.233-.666-2.449,1.223-4.119,1.112-5.789h-2.668c1.668,2.449,1.779,1.781-2.556,5.233-2.89-4.231-5.669.779-7.114-2.227-1.667,1.113-3.223,2.115-4.779,3.34-.667.445-.667,2.894-.111,3.451a1.319,1.319,0,0,0,1.223.445,5.4,5.4,0,0,0,3.667-3.117c1.445,1,2.557.223,3.557-.779,1.445-1.447,1.89.111,3.224,1.113,1.444,1.113.778,1.559-.334,3.674v.445c.445-.111.889-.222,1.556-.334-.556,2-1,6.235-4.112,4.231-1.334-.891-1.89-.891-2.668.445a2.045,2.045,0,0,1-2,.891c-6.557.334-5.224,1-8,1.892-2.112.668.333-1.447-8,3.34a2.248,2.248,0,0,0-.778,1c-.556,2.895-.667,5.344-1.223,5.456-2.334.222-.444-5.678-5.668-5.79-3-.111-5.335,1.336-7.336,3.452-1.556,1.67-2.223,6.679,1.667,5.9.445-.111.889-.334,1.223-.223a1.223,1.223,0,0,1,.667,2c-.89,1-3.224,1.893-1.556,3.006.889.557.444.891.444,4.12,0,1.781,1.334,2.783,3.557,3.673,3.223,1.114,2.89-3.9,6-2a26.1,26.1,0,0,0,4.335,2.116,9.424,9.424,0,0,1,3.557,2.338c1.444,1.558,6.446,1.892,8.891,8.349.334,1,1.334,1.782,1.779,2.784a3.443,3.443,0,0,0,2.779,2.115c3.334.779,6.335,3.117,6.335,4.787a6.281,6.281,0,0,1-2.556,5.121c-1.445,1.225-1.779,4.231-3.557,7.014-3,4.565-5.78,2.895-7.225,5.01-1.222,1.781-2.445,3.451-3.557,5.232-1.222,2.116-5.668,4.008-7.224,6.235-1.223,1.781-2.668,3.563-2,6.123a24.466,24.466,0,0,1,.889,5.233c-2-.557-3.223-1.893-4.557-3.229-2-2.115-2.556-4.676-2.779-7.459-.111-.779-.555-1.559-.666-2.338,0-1.559.111-3.229.222-4.787a6.121,6.121,0,0,0-.111-3.451,4.525,4.525,0,0,1,0-2.116c.889-6.234,1.111-6.68.889-7.013a4.1,4.1,0,0,1-1-4.454c-1.89-2.115-3.557-4.008-5.224-5.9a4.762,4.762,0,0,1-1.112-3.229,20.416,20.416,0,0,0-.445-2.56c-.333-3.563,1.557-5.122,3.446-7.9,2-2.894.778-5.121.111-5.566-3.445-1.893-2-4.453-3.668-5.678s-1.111-2.338-1-3.34c-3.334-2.449-5.446-3.006-4.446-7.459,0-.111.111-.445.111-.557a1.922,1.922,0,0,0-.222-1.336v-.111a.109.109,0,0,0-.111-.111,56.181,56.181,0,0,0-8.559,30.059,56.4,56.4,0,0,0,52.8,56.333c1.223.111,2.445.111,3.668.111A57.033,57.033,0,0,0-803.6,6.253V6.142c0-.111.111-.223.111-.445V5.474A44.1,44.1,0,0,1-801.155.242c3.223-5.678-2.557-6.124,2.779-12.581.666-.89,3.89-3.228,2-7.236a6.762,6.762,0,0,1-.667-4.231c.445-2.338,2-4.119,1.334-6.791-.222-1.113-.444-1.225-1.445-.779-.667.334-1,.111-1.556-.223a5.442,5.442,0,0,0-3.445-.779c-8,1.447-12-4.676-13.45-5.678-2.778-1.893-1.667-4.231.223-13.026a1.928,1.928,0,0,0,.111-1.113c-.889-2.449.667-3.674,2.223-5.01.111-.111.222-.222.333-.222,2-.557,3.224-2,4.446-3.452.111-.111.223-.334.445-.334,3.334-1.224,6.669-2.226,10.114-.89,2,.779,3.113-1.336,8.114,2.894,2.779,2.561,3,1.336,6.892,1.893ZM-869.4-63.885c.889-1.781,2.111-1.892,3.556-1,.778.446,1.223.446,4.557,1.448,0,.222-.111.334-.111.556C-864.177-62.549-866.733-63.328-869.4-63.885Zm11.114,4.788c-1.889-.223-3.445-.334-5-.557,1.111-1.447,3.89-1.781,5-.668C-858.063-60.1-858.286-59.431-858.286-59.1Zm31.789-29.28c2.334-1,3.223-1.447,4.224-.334.222.222,0,.779-.112,1.224a4.832,4.832,0,0,1-1.333,1.893,18.639,18.639,0,0,1-3-1.225C-827.386-87.264-827.275-88.043-826.5-88.377ZM-810.825-77.8a16.151,16.151,0,0,1-.889-1.447c1.111-.891,1.778-1.113,1.445-2.115a1.182,1.182,0,0,1,.111-.891c.222-.111.778-.223,1,0,1.334,1.447,3.446,2.227,4.113,4.231,0,.111.111.111.111.222.111.668.444,1.67.222,1.781a4.6,4.6,0,0,1-2.556,1c-.89,0-1.334-.89-1.334-1.781a12.194,12.194,0,0,0-.334-1.781C-809.825-78.246-810.269-78.023-810.825-77.8Z" fill="#ebf0fd"/>
    <path id="Path_452" data-name="Path 452" d="M-874.694-41.938C-895.862-38.353-917.551-16.651-888.8-9.08" fill="none" stroke="#22b0f0" stroke-linecap="round" stroke-linejoin="round" stroke-width="4" stroke-dasharray="1 7"/>
    <path id="Path_453" data-name="Path 453" d="M-888.852-77.133a1.875,1.875,0,0,0,1.89-1.893,1.875,1.875,0,0,0-1.89-1.892,1.874,1.874,0,0,0-1.889,1.892A1.946,1.946,0,0,0-888.852-77.133Z" fill="#f9ba32"/>
    <path id="Path_454" data-name="Path 454" d="M-888.629,7.366a1.874,1.874,0,0,0,1.889-1.892,1.81,1.81,0,0,0-1.889-1.893,1.875,1.875,0,0,0-1.89,1.893A1.875,1.875,0,0,0-888.629,7.366Z" fill="#f9ba32"/>
    <path id="Path_455" data-name="Path 455" d="M-784.987-77.6a1.758,1.758,0,0,0,1.779-1.782,1.758,1.758,0,0,0-1.779-1.781,1.757,1.757,0,0,0-1.778,1.781A1.912,1.912,0,0,0-784.987-77.6Z" fill="#f9ba32"/>
    <path id="Path_456" data-name="Path 456" d="M-840.972-57.361l-6.272-4.461-.166-.161a2.236,2.236,0,0,1-.545-2.769,2.172,2.172,0,0,1,2.251-1.185,45.533,45.533,0,0,1,5.224,1.048c4.751,1.711,13.9,3.994,13.9,3.994Z" fill="#22b0f0"/>
    <path id="Path_457" data-name="Path 457" d="M-788.3-49.829a2.925,2.925,0,0,0,2.864-3,2.942,2.942,0,0,0-2.987-2.887,2.924,2.924,0,0,0-2.863,2.995A2.942,2.942,0,0,0-788.3-49.829Z" fill="#133786"/>
    <path id="Path_458" data-name="Path 458" d="M-821.978-35.314a2.925,2.925,0,0,0,2.864-3A2.942,2.942,0,0,0-822.1-41.2a2.927,2.927,0,0,0-2.864,2.995A2.944,2.944,0,0,0-821.978-35.314Z" fill="#133786"/>
    <path id="Path_459" data-name="Path 459" d="M-773.679-65.79a4.182,4.182,0,0,1-1.526,4.768c-2.079,1.673-4.157,3.346-14.013,6.306s-37.809,11.158-46.378,13.44a56.035,56.035,0,0,1-22.725,1.726c-5.549-1.042-11.942-3.54-13.981-7.753-1.877-4.216,2.687-3.646,2.687-3.646l1.331,1.447s74.32-22.291,77.231-23,6.65-.776,9.284.81a2.37,2.37,0,0,1,1.483.953,15.1,15.1,0,0,1,2.987,2.888S-774.032-67.092-773.679-65.79Z" fill="url(#linear-gradient)"/>
    <path id="Path_460" data-name="Path 460" d="M-847.1-29.2l11.712-14.509a1.974,1.974,0,0,0-.485-2.944,1.1,1.1,0,0,1,.164-1.96c2.926-1.135,8.454-3.079,13.331-4.371,6.828-1.939,8.453-1.607,10.078-.785,1.788.823,4.387,2.793,3.9,4.1-.325,1.143-.976,1.3-1.951,1.955s-26.67,19.364-28.622,20.666c-1.951,1.464-4.228,2.765-6.016,2.759a12.132,12.132,0,0,1-3.9-.666,1.668,1.668,0,0,1,0-2.289A26.452,26.452,0,0,0-847.1-29.2Z" fill="#22b0f0"/>
    <path id="Path_461" data-name="Path 461" d="M-866.719-44.627l4.52-1.554.806-.342a1.262,1.262,0,0,1,1.307.3,1.261,1.261,0,0,1-.129,1.637l-8.926,8.5a1.54,1.54,0,0,1-1.131.348,1.312,1.312,0,0,1-1.013-1.78l2.318-5.764a1.079,1.079,0,0,1,.8-.668Z" fill="#22b0f0"/>
    <path id="Path_462" data-name="Path 462" d="M-870.5-46.682l-1.131.347c-2.2-2.925-2.913-5.271-4.44-8.254-1.519-2.968-3.356-6.968-3.356-6.968a1.239,1.239,0,0,1,.135-1.311,1.081,1.081,0,0,1,1.621-.193l10.877,6.993c.823.475,1.645.95,2.631,1.423l5.739,2.346a.464.464,0,0,1,.017.817,64.539,64.539,0,0,1-6.424,2.9A45.722,45.722,0,0,1-870.5-46.682Z" fill="#22b0f0"/>
    <path id="Path_463" data-name="Path 463" d="M-777.3-68.013a41.045,41.045,0,0,1-4.495,2.7,7.9,7.9,0,0,1-1.774.686,1.866,1.866,0,0,1-2.137-1.105,1.821,1.821,0,0,1,.927-2.305,11.018,11.018,0,0,0,1.29-.515,13.415,13.415,0,0,0,3.206-2.184A27.018,27.018,0,0,1-777.3-68.013Z" fill="#22b0f0"/>
  </g>
</svg>
