<svg xmlns="http://www.w3.org/2000/svg" width="36" height="36" viewBox="0 0 36 36">
  <g id="like_icon" transform="translate(-1786 -574)">
    <g id="Group_42" data-name="Group 42" transform="translate(395 289)">
      <rect id="Rectangle_22" data-name="Rectangle 22" width="36" height="36" transform="translate(1391 285)" fill="none"/>
    </g>
    <path id="heart_1_" data-name="heart(1)" d="M15.381,27.369a1.8,1.8,0,0,1-1.189-.447c-1.243-1.087-2.441-2.108-3.5-3.009l-.005,0A65.058,65.058,0,0,1,3.051,16.74,11.45,11.45,0,0,1,0,9.245,9.615,9.615,0,0,1,2.44,2.678,8.272,8.272,0,0,1,8.594,0a7.738,7.738,0,0,1,4.833,1.668,9.889,9.889,0,0,1,1.954,2.04,9.89,9.89,0,0,1,1.954-2.04A7.738,7.738,0,0,1,22.169,0a8.273,8.273,0,0,1,6.153,2.678,9.615,9.615,0,0,1,2.44,6.567,11.449,11.449,0,0,1-3.051,7.495,65.044,65.044,0,0,1-7.637,7.168c-1.059.9-2.259,1.925-3.5,3.014A1.805,1.805,0,0,1,15.381,27.369ZM8.594,1.8A6.49,6.49,0,0,0,3.765,3.9,7.821,7.821,0,0,0,1.8,9.245,9.634,9.634,0,0,0,4.438,15.59a64.02,64.02,0,0,0,7.419,6.947l.006,0c1.061.9,2.264,1.929,3.516,3.024,1.259-1.1,2.464-2.124,3.527-3.029a64.031,64.031,0,0,0,7.418-6.947,9.635,9.635,0,0,0,2.636-6.345A7.821,7.821,0,0,0,27,3.9a6.49,6.49,0,0,0-4.829-2.1,5.977,5.977,0,0,0-3.731,1.292A8.744,8.744,0,0,0,16.358,5.5a1.137,1.137,0,0,1-1.954,0,8.736,8.736,0,0,0-2.079-2.406A5.976,5.976,0,0,0,8.594,1.8Zm0,0" transform="translate(1788.619 578.315)" fill="#22b0f0"/>
  </g>
</svg>
