<svg xmlns="http://www.w3.org/2000/svg" width="24" height="24" viewBox="0 0 24 24">
  <g id="Group_22" data-name="Group 22" transform="translate(1558 -763)">
    <rect id="Rectangle_7" data-name="Rectangle 7" width="24" height="24" transform="translate(-1558 763)" fill="none"/>
    <g id="language" transform="translate(-1554 767)">
      <g id="Group_12" data-name="Group 12" transform="translate(3.822 4.353)">
        <g id="Group_11" data-name="Group 11">
          <path id="Path_6" data-name="Path 6" d="M120.878,137h-.2l-.381,1.906h.966Z" transform="translate(-120.293 -137)" fill="#f9ba32"/>
        </g>
      </g>
      <g id="Group_14" data-name="Group 14" transform="translate(12.117 8.165)">
        <g id="Group_13" data-name="Group 13">
          <path id="Path_7" data-name="Path 7" d="M381.374,257a4.98,4.98,0,0,0,.782,1.381,5.03,5.03,0,0,0,.814-1.381Z" transform="translate(-381.374 -257)" fill="#f9ba32"/>
        </g>
      </g>
      <g id="Group_16" data-name="Group 16" transform="translate(7.71 2.891)">
        <g id="Group_15" data-name="Group 15">
          <path id="Path_8" data-name="Path 8" d="M249.79,91h-5.918l1.234,9.9a1.479,1.479,0,0,1-.353,1.085l-2.09,2.388h7.127a1.431,1.431,0,0,0,1.43-1.43V92.461A1.459,1.459,0,0,0,249.79,91Zm0,5.274h-.127a6.047,6.047,0,0,1-1.148,2.087c.35.32.724.583,1.1.877a.476.476,0,0,1-.6.744c-.4-.319-.784-.586-1.164-.935-.38.348-.727.616-1.132.935a.476.476,0,1,1-.6-.744c.372-.294.715-.557,1.065-.877a6.015,6.015,0,0,1-1.116-2.087h-.127a.477.477,0,1,1,0-.953h1.43v-.477a.477.477,0,1,1,.953,0v.477h1.461a.477.477,0,0,1,0,.953Z" transform="translate(-242.663 -91)" fill="#f9ba32"/>
        </g>
      </g>
      <g id="Group_18" data-name="Group 18">
        <g id="Group_17" data-name="Group 17">
          <path id="Path_9" data-name="Path 9" d="M7.757,1.252A1.432,1.432,0,0,0,6.339,0H1.43A1.431,1.431,0,0,0,0,1.43V11.978a1.431,1.431,0,0,0,1.43,1.43H8.945c.139-.159.256-.258.26-.466C9.207,12.89,7.764,1.3,7.757,1.252ZM5.844,9.109a.476.476,0,0,1-.561-.374l-.3-1.523H3.631l-.3,1.523a.477.477,0,0,1-.935-.187l.953-4.766A.477.477,0,0,1,3.813,3.4H4.8a.477.477,0,0,1,.467.383l.953,4.766A.477.477,0,0,1,5.844,9.109Z" fill="#f9ba32"/>
        </g>
      </g>
      <g id="Group_20" data-name="Group 20" transform="translate(5.568 14.361)">
        <g id="Group_19" data-name="Group 19">
          <path id="Path_10" data-name="Path 10" d="M175.261,452l.082.654a1.441,1.441,0,0,0,.824,1.107l1.6-1.761Z" transform="translate(-175.261 -452)" fill="#f9ba32"/>
        </g>
      </g>
    </g>
  </g>
</svg>
