<svg xmlns="http://www.w3.org/2000/svg" width="24" height="24" viewBox="0 0 24 24">
  <g id="Group_23" data-name="Group 23" transform="translate(1585 -763)">
    <rect id="Rectangle_6" data-name="Rectangle 6" width="24" height="24" transform="translate(-1585 763)" fill="none"/>
    <g id="wallet-filled-money-tool" transform="translate(-1580.698 749.77)">
      <g id="Group_21" data-name="Group 21" transform="translate(0 17.84)">
        <path id="Path_11" data-name="Path 11" d="M160.34,20.654l6.138-1.675-.325-.657a.865.865,0,0,0-1.158-.391L159.5,20.654Z" transform="translate(-156.742 -17.84)" fill="#f9ba32"/>
        <path id="Path_12" data-name="Path 12" d="M328.074,86.46a.865.865,0,0,0-.228.031l-1.442.394-4.4,1.2h7.177l-.27-.989A.863.863,0,0,0,328.074,86.46Z" transform="translate(-316.433 -85.274)" fill="#f9ba32"/>
        <path id="Path_13" data-name="Path 13" d="M13.645,215.56H.866a.866.866,0,0,0-.835.638.9.9,0,0,0-.031.227v9.632a.865.865,0,0,0,.864.864H13.643a.865.865,0,0,0,.864-.864v-2.412H9.378a1.471,1.471,0,0,1-1.47-1.47v-1.923a1.468,1.468,0,0,1,1.468-1.468h5.131v-2.36A.862.862,0,0,0,13.645,215.56Z" transform="translate(0 -212.142)" fill="#f9ba32"/>
        <path id="Path_14" data-name="Path 14" d="M499,436.987a.865.865,0,0,0-.3-.18.882.882,0,0,0-.28-.047h-5.154a.865.865,0,0,0-.864.864v1.924a.865.865,0,0,0,.864.864h5.154a.882.882,0,0,0,.28-.047.84.84,0,0,0,.3-.18.862.862,0,0,0,.282-.638v-1.924A.862.862,0,0,0,499,436.987Zm-3.932,1.772a.432.432,0,0,1-.432.432h-.287a.432.432,0,0,1-.432-.432v-.287a.424.424,0,0,1,.166-.339.437.437,0,0,1,.266-.093h.287a.432.432,0,0,1,.432.432v.287Z" transform="translate(-483.887 -429.518)" fill="#f9ba32"/>
      </g>
    </g>
  </g>
</svg>
